<svg width="132" height="33" viewBox="0 0 132 33" fill="none" xmlns="http://www.w3.org/2000/svg">
<path fill-rule="evenodd" clip-rule="evenodd" d="M0 0H132V25.9286H20.4286L14.1429 32.2143L7.85714 25.9286H0V0ZM60.6282 6.51646C60.3493 6.79769 60.0147 6.93831 59.6243 6.93831C59.2339 6.93831 58.8922 6.79769 58.5994 6.51646C58.3205 6.22116 58.1811 5.87666 58.1811 5.48293C58.1811 5.08921 58.3205 4.75173 58.5994 4.4705C58.8783 4.1752 59.2199 4.02755 59.6243 4.02755C60.0286 4.02755 60.3703 4.1752 60.6491 4.4705C60.928 4.75173 61.0674 5.08921 61.0674 5.48293C61.0674 5.87666 60.921 6.22116 60.6282 6.51646ZM58.4948 18.0714V8.27149H60.7537V18.0714H58.4948ZM22.27 4.11726V18.0714H24.5288V4.11726H22.27ZM37.1996 7.52524H34.9826V9.08607C34.132 7.86271 32.9189 7.25103 31.3433 7.25103C29.8653 7.25103 28.6173 7.78537 27.5995 8.85406C26.5816 9.90868 26.0726 11.1883 26.0726 12.6929C26.0726 14.1975 26.5816 15.4841 27.5995 16.5528C28.6173 17.6074 29.8653 18.1347 31.3433 18.1347C32.9189 18.1347 34.132 17.523 34.9826 16.2997V17.5863C34.9826 18.5003 34.7037 19.2104 34.146 19.7166C33.6022 20.2369 32.8422 20.4971 31.8662 20.4971C30.3742 20.4971 29.3563 19.9557 28.8125 18.8729L26.8674 20.0119C27.7598 21.7134 29.4121 22.5641 31.8244 22.5641C33.3163 22.5641 34.5852 22.1352 35.631 21.2775C36.6767 20.4197 37.1996 19.1893 37.1996 17.5863V7.52524ZM31.657 16.0044C30.7089 16.0044 29.9141 15.688 29.2727 15.0552C28.6452 14.4225 28.3315 13.635 28.3315 12.6929C28.3315 11.7507 28.6452 10.9633 29.2727 10.3305C29.9141 9.69775 30.7089 9.38137 31.657 9.38137C32.6052 9.38137 33.393 9.69775 34.0205 10.3305C34.6619 10.9633 34.9826 11.7507 34.9826 12.6929C34.9826 13.635 34.6619 14.4225 34.0205 15.0552C33.393 15.688 32.6052 16.0044 31.657 16.0044ZM44.2752 18.3456C42.7414 18.3456 41.4377 17.8113 40.364 16.7426C39.2904 15.6739 38.7535 14.3592 38.7535 12.7983C38.7535 11.2375 39.2904 9.92274 40.364 8.85406C41.4377 7.78537 42.7414 7.25103 44.2752 7.25103C45.8229 7.25103 47.1266 7.78537 48.1864 8.85406C49.26 9.92274 49.7969 11.2375 49.7969 12.7983C49.7969 14.3592 49.26 15.6739 48.1864 16.7426C47.1266 17.8113 45.8229 18.3456 44.2752 18.3456ZM41.9536 15.1818C42.581 15.8146 43.3549 16.1309 44.2752 16.1309C45.1955 16.1309 45.9693 15.8146 46.5968 15.1818C47.2243 14.549 47.538 13.7545 47.538 12.7983C47.538 11.8421 47.2243 11.0477 46.5968 10.4149C45.9693 9.78212 45.1955 9.46574 44.2752 9.46574C43.3549 9.46574 42.581 9.78212 41.9536 10.4149C41.3261 11.0477 41.0124 11.8421 41.0124 12.7983C41.0124 13.7545 41.3261 14.549 41.9536 15.1818ZM56.8259 7.3354C55.2503 7.3354 54.1766 7.98927 53.6049 9.297V7.52524H51.346V18.0714H53.6049V12.7562C53.6049 11.6734 53.9256 10.9 54.567 10.436C55.2084 9.95789 55.9614 9.74697 56.8259 9.80322V7.3354ZM66.6183 9.71884H69.2119V7.52524H66.6183V4.5723L64.3595 5.24725V7.52524H62.4353V9.71884H64.3595V14.781C64.3595 16.1591 64.736 17.1082 65.4889 17.6285C66.2419 18.1347 67.4828 18.2824 69.2119 18.0714V16.0255C68.6402 16.0536 68.1591 16.0606 67.7687 16.0466C67.3922 16.0184 67.1064 15.913 66.9112 15.7302C66.716 15.5333 66.6183 15.2169 66.6183 14.781V9.71884ZM76.7613 7.25103C77.9605 7.25103 78.9295 7.63773 79.6686 8.41112C80.4076 9.18451 80.7771 10.2462 80.7771 11.5961V18.0714H78.5182V11.8281C78.5182 11.0406 78.3091 10.436 77.8907 10.0141C77.4724 9.59229 76.9007 9.38137 76.1757 9.38137C75.3809 9.38137 74.7395 9.63447 74.2515 10.1407C73.7635 10.6328 73.5194 11.3922 73.5194 12.4187V18.0714H71.2606V4.11725H73.5194V8.87515C74.2027 7.79241 75.2833 7.25103 76.7613 7.25103ZM101.555 6.93831C101.945 6.93831 102.28 6.79769 102.559 6.51646C102.852 6.22116 102.998 5.87666 102.998 5.48293C102.998 5.08921 102.859 4.75173 102.58 4.4705C102.301 4.1752 101.959 4.02755 101.555 4.02755C101.15 4.02755 100.809 4.1752 100.53 4.4705C100.251 4.75173 100.112 5.08921 100.112 5.48293C100.112 5.87666 100.251 6.22116 100.53 6.51646C100.823 6.79769 101.164 6.93831 101.555 6.93831ZM100.425 8.27149V18.0714H102.684V8.27149H100.425ZM94.3584 7.25103C95.5436 7.25103 96.4987 7.63773 97.2238 8.41112C97.9488 9.18451 98.3114 10.2251 98.3114 11.5328V18.0714H96.0525V11.6804C96.0525 10.9492 95.8712 10.3868 95.5087 9.99305C95.1462 9.58526 94.6512 9.38137 94.0237 9.38137C93.3265 9.38137 92.7688 9.61338 92.3505 10.0774C91.9461 10.5414 91.7439 11.2375 91.7439 12.1656V18.0714H89.4851V11.6804C89.4851 10.9492 89.3108 10.3868 88.9622 9.99305C88.6275 9.58526 88.1465 9.38137 87.519 9.38137C86.8358 9.38137 86.2781 9.62041 85.8458 10.0985C85.4136 10.5625 85.1974 11.2516 85.1974 12.1656V18.0714H82.9386V7.52524H85.1974V8.79078C85.8667 7.76428 86.8637 7.25103 88.1883 7.25103C89.5269 7.25103 90.5169 7.80647 91.1583 8.91733C91.8555 7.80647 92.9222 7.25103 94.3584 7.25103ZM106.124 16.7426C107.184 17.8113 108.502 18.3456 110.077 18.3456C111.095 18.3456 112.022 18.0996 112.859 17.6074C113.696 17.1153 114.337 16.4473 114.783 15.6036L112.838 14.4857C112.587 14.9779 112.211 15.3716 111.709 15.6669C111.221 15.9622 110.67 16.1098 110.056 16.1098C109.136 16.1098 108.362 15.7935 107.735 15.1607C107.121 14.5279 106.814 13.7405 106.814 12.7983C106.814 11.8562 107.121 11.0688 107.735 10.436C108.362 9.80322 109.136 9.48683 110.056 9.48683C110.684 9.48683 111.235 9.63448 111.709 9.92977C112.197 10.211 112.559 10.6047 112.796 11.1109L114.741 9.97195C114.323 9.14232 113.696 8.48142 112.859 7.98927C112.022 7.49711 111.095 7.25103 110.077 7.25103C108.502 7.25103 107.184 7.78537 106.124 8.85406C105.079 9.90868 104.556 11.2234 104.556 12.7983C104.556 14.3592 105.079 15.6739 106.124 16.7426ZM118.137 10.436C118.137 10.7875 118.325 11.0688 118.702 11.2797C119.092 11.4765 119.559 11.6523 120.103 11.807C120.661 11.9476 121.218 12.1164 121.776 12.3132C122.334 12.5101 122.801 12.8476 123.177 13.3256C123.568 13.7897 123.763 14.3803 123.763 15.0974C123.763 16.1098 123.373 16.9043 122.592 17.4809C121.825 18.0574 120.856 18.3456 119.685 18.3456C118.653 18.3456 117.767 18.1277 117.028 17.6918C116.289 17.2559 115.752 16.6512 115.418 15.8778L117.363 14.7388C117.725 15.7513 118.499 16.2575 119.685 16.2575C120.87 16.2575 121.462 15.8638 121.462 15.0763C121.462 14.7388 121.267 14.4646 120.877 14.2537C120.5 14.0428 120.033 13.867 119.475 13.7264C118.932 13.5717 118.381 13.396 117.823 13.1991C117.265 13.0022 116.791 12.6788 116.401 12.2288C116.024 11.7648 115.836 11.1813 115.836 10.4782C115.836 9.50792 116.199 8.7275 116.924 8.13692C117.663 7.54633 118.576 7.25103 119.664 7.25103C120.528 7.25103 121.295 7.4479 121.964 7.84162C122.648 8.22128 123.17 8.75562 123.533 9.44464L121.63 10.5204C121.267 9.71885 120.612 9.31809 119.664 9.31809C119.231 9.31809 118.869 9.41652 118.576 9.61338C118.283 9.79618 118.137 10.0704 118.137 10.436ZM16.9682 15.0976L18.2262 18.0704H20.7767L15.3714 4.06095H12.9148L7.51032 18.0704H10.0813L11.318 15.0976H16.9682ZM16.2312 12.8206H12.055L14.1431 6.93219L16.2312 12.8206Z" fill="#FFFFFF"/>
</svg>
